:SAMPLES-PER-SECOND 30
:FULLY-SPECIFIED
:DEGREES
706
root  -19.1702 39.8627 -0.0167033 -21.1518 -83.1473 14.541
RightUpLeg  0.0117015 -12.7243 -9.41533
RightLeg  10.5363 7.72787 2.7443
RightFoot  -5.80407 -0.341747 6.23939
RightToes  2.91037e-010 0 -3.6325e-017
Spine  12.275 -1.96589 11.6458
Spine1  12.3591 0.0272354 -1.59723
HEad  -4.36464 6.16645 -6.54224
LeftShoulder1  0.480583 2.19676 -30.6785
LeftArm  3.46878 13.9948 -40.8391
LeftForeArm  14.4838 -21.9717 -4.30923
LeftHand  -0.0168338 3.73743 -0.244307
RightShoulder  -0.464693 -4.85138 27.5977
RightArm  14.1771 -14.7787 34.2624
RightForeArm  -3.87207 7.30837 6.79495
RightHand  -0.378812 1.22669 -6.78576
LeftUpLeg  -1.55324 -1.94521 4.77796
LeftLeg  30.48 -1.31904 -0.497762
LeftFoot  -9.89163 0.135486 -6.02796
LeftToes  -7.53974e-010 3.3384e-011 -1.25048e-011
707
root  -18.3086 39.7826 0.349069 -21.4123 -84.0349 14.6343
RightUpLeg  -1.03755 -12.7416 -9.60007
RightLeg  9.80545 8.60029 2.80394
RightFoot  -4.6361 -0.475793 7.56858
RightToes  2.91037e-010 0 -3.6325e-017
Spine  12.0934 -2.11813 10.5081
Spine1  11.9717 -0.501128 -0.777633
HEad  -4.36213 7.46154 -6.05139
LeftShoulder1  0.512307 2.09673 -30.3047
LeftArm  3.01285 12.8624 -41.3027
LeftForeArm  15.5366 -21.2573 -4.37307
LeftHand  -0.00942432 3.49144 -0.576094
RightShoulder  -0.419718 -4.7376 27.0389
RightArm  16.0563 -15.4169 32.7919
RightForeArm  -3.3904 9.45646 7.08057
RightHand  -0.424624 1.45713 -7.33148
LeftUpLeg  2.01708 -1.63271 5.89487
LeftLeg  30.2321 -1.93309 -0.874249
LeftFoot  -10.5802 0.102872 -5.94344
LeftToes  -7.53974e-010 3.3384e-011 -1.25048e-011
708
root  -17.395 39.6603 0.761446 -24.5431 -85.0302 17.6616
RightUpLeg  -2.56841 -12.8554 -10.0013
RightLeg  9.63765 9.58326 2.86179
RightFoot  -3.71755 -0.641544 9.23068
RightToes  2.91037e-010 0 -3.6325e-017
Spine  12.0391 -2.1837 9.15301
Spine1  11.6712 -0.943881 -0.135457
HEad  -4.74743 7.8394 -5.37411
LeftShoulder1  0.517675 2.07545 -30.1626
LeftArm  4.06385 11.6927 -41.4392
LeftForeArm  15.816 -21.4954 -4.33827
LeftHand  -0.00609098 3.76544 -0.807181
RightShoulder  -0.332038 -4.506 26.0377
RightArm  16.8843 -15.0187 32.7013
RightForeArm  -4.03341 10.4033 7.14223
RightHand  -0.552193 2.90128 -7.95978
LeftUpLeg  5.48793 -1.13189 6.5612
LeftLeg  29.1389 -3.84715 -1.97697
LeftFoot  -11.1204 0.0783082 -6.36583
LeftToes  -7.53974e-010 3.3384e-011 -1.25048e-011
709
root  -16.4255 39.4808 1.24282 -26.6657 -85.7757 20.0289
RightUpLeg  -4.67072 -13.1531 -10.3707
RightLeg  9.7948 10.2587 2.98555
RightFoot  -2.98965 -0.825589 10.9937
RightToes  2.91037e-010 0 -3.6325e-017
Spine  11.7167 -2.41714 8.59646
Spine1  11.2831 -1.23288 -0.556183
HEad  -5.50526 8.57023 -5.39761
LeftShoulder1  0.612517 1.76572 -29.1374
LeftArm  4.12964 10.5049 -42.2553
LeftForeArm  17.34 -21.7373 -4.21579
LeftHand  0.000546824 3.30677 -1.12044
RightShoulder  -0.341334 -4.54794 25.6124
RightArm  16.172 -13.8716 33.0909
RightForeArm  -4.11309 10.7264 6.91687
RightHand  -0.501502 2.38699 -7.6714
LeftUpLeg  8.19276 -0.951994 6.84764
LeftLeg  27.5425 -6.55617 -3.36156
LeftFoot  -11.6341 0.0510525 -7.53909
LeftToes  -7.53974e-010 3.3384e-011 -1.25048e-011
710
root  -15.39 39.2398 1.76579 -29.02 -86.2564 22.5422
RightUpLeg  -6.82241 -13.2828 -10.736
RightLeg  10.0352 10.6456 2.79401
RightFoot  -2.4246 -1.02568 12.8968
RightToes  2.91037e-010 0 -3.6325e-017
Spine  11.9126 -2.58878 7.67437
Spine1  10.5509 -1.59567 -0.374838
HEad  -6.40921 8.57872 -5.35626
LeftShoulder1  0.644313 1.64354 -28.5234
LeftArm  4.75421 9.48547 -42.636
LeftForeArm  18.0036 -23.2065 -4.13774
LeftHand  -0.000139254 2.53853 -0.562911
RightShoulder  -0.374127 -4.65566 25.4557
RightArm  14.9376 -12.2863 33.6268
RightForeArm  -4.82951 11.0606 6.59526
RightHand  -0.438353 2.2876 -6.81677
LeftUpLeg  10.3962 -0.973521 6.63445
LeftLeg  25.7745 -9.72438 -4.74975
LeftFoot  -12.1147 0.00804512 -8.76923
LeftToes  -7.53974e-010 3.3384e-011 -1.25048e-011
711
root  -14.3068 38.9791 2.34851 -29.3631 -86.2799 22.7167
RightUpLeg  -8.07691 -13.6959 -11.5367
RightLeg  9.44201 10.7199 2.63049
RightFoot  -2.2958 -1.24948 15.5151
RightToes  2.91037e-010 0 -3.6325e-017
Spine  12.3746 -2.74457 6.35519
Spine1  10.0645 -2.17469 0.407671
HEad  -7.58149 7.80501 -5.41742
LeftShoulder1  0.614717 1.75817 -29.1146
LeftArm  5.27656 8.084 -42.0223
LeftForeArm  19.1516 -25.7543 -4.49121
LeftHand  -0.00803524 1.99587 -0.115534
RightShoulder  -0.317637 -4.49737 24.8566
RightArm  12.805 -10.8537 34.8205
RightForeArm  -6.50289 11.7697 6.04521
RightHand  -0.544661 3.14147 -7.65242
LeftUpLeg  12.2506 -2.22515 5.51691
LeftLeg  24.0555 -12.0428 -5.50264
LeftFoot  -14.0302 -0.101379 -8.41404
LeftToes  -7.53974e-010 3.3384e-011 -1.25048e-011
712
root  -13.1596 38.7414 2.94964 -25.9903 -85.4686 19.5236
RightUpLeg  -8.80244 -14.318 -12.7108
RightLeg  7.43051 9.8794 2.28988
RightFoot  -2.26854 -1.54544 19.1037
RightToes  2.91037e-010 0 -3.6325e-017
Spine  12.2654 -2.91997 5.11322
Spine1  9.80969 -2.6727 0.285721
HEad  -9.20488 6.74294 -4.91681
LeftShoulder1  0.683133 1.54332 -28.7322
LeftArm  4.21202 6.33587 -42.8319
LeftForeArm  20.7762 -27.5063 -4.80534
LeftHand  -0.0348893 1.47011 0.827666
RightShoulder  -0.322164 -4.50176 25.1646
RightArm  10.9575 -8.93112 35.7428
RightForeArm  -8.25209 12.4841 5.61227
RightHand  -0.606132 4.20609 -7.59189
LeftUpLeg  12.3141 -4.0138 3.63716
LeftLeg  22.7129 -12.2163 -5.24563
LeftFoot  -17.228 -0.0842008 -3.64553
LeftToes  -7.53974e-010 3.3384e-011 -1.25048e-011
713
root  -11.9289 38.5002 3.62015 -28.6444 -85.0276 22.1615
RightUpLeg  -9.17303 -14.9591 -14.1771
RightLeg  4.81756 9.23988 1.92923
RightFoot  -2.20367 -1.78026 21.8627
RightToes  2.91037e-010 0 -3.6325e-017
Spine  12.7651 -2.72493 3.531
Spine1  9.52232 -2.78767 0.542737
HEad  -10.9702 4.81429 -3.91367
LeftShoulder1  0.608385 1.76457 -28.8678
LeftArm  3.89777 4.00774 -43.4503
LeftForeArm  21.1723 -29.3079 -5.19512
LeftHand  -0.0643721 1.77516 1.78952
RightShoulder  -0.321402 -4.49763 25.2181
RightArm  8.66628 -6.6855 37.2811
RightForeArm  -7.81533 13.1558 5.05051
RightHand  -0.496312 2.84014 -7.22038
LeftUpLeg  11.5609 -3.99611 1.62338
LeftLeg  21.1921 -10.0331 -3.92784
LeftFoot  -20.7804 0.091583 -0.387513
LeftToes  -7.53974e-010 3.3384e-011 -1.25048e-011
714
root  -10.5963 38.3234 4.32667 -33.1795 -84.2199 26.4213
RightUpLeg  -8.77326 -16.0308 -16.1463
RightLeg  1.33548 8.29538 1.54752
RightFoot  -2.87574 -1.75774 23.1883
RightToes  2.91037e-010 0 -3.6325e-017
Spine  14.0162 -2.42603 1.74035
Spine1  9.07133 -2.73385 0.746213
HEad  -12.9708 2.46648 -2.4552
LeftShoulder1  0.664991 1.58962 -28.6191
LeftArm  3.07971 1.87556 -44.3016
LeftForeArm  21.6149 -31.0226 -5.57785
LeftHand  -0.0573041 1.66732 1.53084
RightShoulder  -0.285404 -4.38546 25.1452
RightArm  6.35018 -4.22459 39.2976
RightForeArm  -7.1311 13.5073 4.56245
RightHand  -0.505889 3.16058 -7.10009
LeftUpLeg  9.5506 -3.99952 -1.05665
LeftLeg  21.8591 -6.77802 -2.64675
LeftFoot  -22.1134 0.462911 3.54539
LeftToes  -7.53974e-010 3.3384e-011 -1.25048e-011
715
root  -9.24692 38.2578 5.0245 -39.72 -83.8231 32.7932
RightUpLeg  -8.46462 -16.5293 -17.4613
RightLeg  -2.4376 6.04671 0.694311
RightFoot  -4.52913 -1.29726 20.8548
RightToes  2.91037e-010 0 -3.6325e-017
Spine  15.066 -1.83774 0.265444
Spine1  9.00748 -2.25497 0.760327
HEad  -14.7934 0.23935 -1.14886
LeftShoulder1  0.696671 1.49043 -28.4923
LeftArm  2.43528 0.123609 -44.8807
LeftForeArm  22.1051 -32.8033 -5.98723
LeftHand  -0.0773127 1.11669 1.95703
RightShoulder  -0.269963 -4.33073 25.3505
RightArm  5.26583 -1.18052 41.445
RightForeArm  -6.10196 13.2717 4.39561
RightHand  -0.533693 3.60161 -7.13116
LeftUpLeg  7.02107 -3.92363 -3.49626
LeftLeg  23.1164 -5.00999 -2.0095
LeftFoot  -22.0583 0.648905 5.50259
LeftToes  -7.53974e-010 3.3384e-011 -1.25048e-011
716
root  -7.99738 38.2431 5.67158 -52.277 -84.5818 45.3072
RightUpLeg  -8.7563 -16.1421 -17.6489
RightLeg  -5.20066 1.24945 0.132684
RightFoot  -7.1057 -0.679284 17.083
RightToes  2.91037e-010 0 -3.6325e-017
Spine  15.8089 -0.919488 -0.0366691
Spine1  8.88228 -0.887657 -0.650234
HEad  -15.762 -1.50728 -0.396637
LeftShoulder1  0.745199 1.31301 -27.8805
LeftArm  1.47343 -0.672278 -45.4097
LeftForeArm  23.0087 -33.9482 -6.22577
LeftHand  -0.108948 0.3331 2.49871
RightShoulder  -0.281168 -4.34939 25.9841
RightArm  5.6526 1.93826 43.705
RightForeArm  -5.10577 12.5835 4.62335
RightHand  -0.602917 4.23123 -7.5425
LeftUpLeg  4.12172 -2.22239 -4.79772
LeftLeg  25.126 -5.13481 -2.27328
LeftFoot  -21.1241 0.627206 5.84129
LeftToes  -7.53974e-010 3.3384e-011 -1.25048e-011
717
root  -6.91906 38.3266 6.34579 -73.2867 -85.7426 66.6779
RightUpLeg  -9.96605 -16.306 -17.3582
RightLeg  -4.2859 -5.08587 1.14658
RightFoot  -7.73296 -0.535207 15.3702
RightToes  2.91037e-010 0 -3.6325e-017
Spine  15.5195 -0.387181 1.57112
Spine1  8.93205 0.643987 -3.42934
HEad  -15.9368 -3.20486 0.0949097
LeftShoulder1  0.771034 1.22921 -27.7633
LeftArm  1.29526 -0.45672 -44.9679
LeftForeArm  22.5078 -34.1908 -6.3182
LeftHand  -0.131937 0.421047 3.06209
RightShoulder  -0.256946 -4.27518 25.9377
RightArm  7.33 4.98719 46.8211
RightForeArm  -3.05184 11.3046 5.26581
RightHand  -0.602951 4.24885 -7.5268
LeftUpLeg  1.74149 -0.997466 -5.93636
LeftLeg  25.5393 -3.89321 -1.68162
LeftFoot  -19.5821 0.585303 6.48517
LeftToes  -7.53974e-010 3.3384e-011 -1.25048e-011
